<mxfile host="app.diagrams.net" modified="2023-12-08T21:52:12.503Z" agent="Mozilla/5.0 (Windows NT 10.0; Win64; x64) AppleWebKit/537.36 (KHTML, like Gecko) Chrome/119.0.0.0 Safari/537.36" version="22.1.7" etag="MEaLAX4-kqQg7uFn1pNK" type="github">
  <diagram name="Page-1" id="r1zoHoloFJw30Ru9b0Kq">
    <mxGraphModel>
      <root>
        <mxCell id="0" />
        <mxCell id="1" parent="0" />
      </root>
    </mxGraphModel>
  </diagram>
</mxfile>
